simulation
nRows=43
nColumns=15
endheader
time  TH_x TH_y TH_z SC_y  SC_z  SC_x  AC_y  AC_z  AC_x  GH_y  GH_z  GH_yy  EL_x  PS_y
0.000000  0.000000  0.000000  0.000000  -38.427883  2.889106  0.977568  47.192185  3.228671  0.786376  47.951351  10.891946  -26.445382  23.139866  133.258772
0.031313  0.000000  0.000000  0.000000  -38.271216  2.906327  0.914711  47.181372  3.188868  0.791771  48.221925  10.560700  -26.169110  23.272855  133.287382
0.062626  0.000000  0.000000  0.000000  -38.164879  2.925388  0.869889  47.148133  3.155717  0.780999  48.429443  10.467170  -25.938352  23.338198  133.308435
0.093939  0.000000  0.000000  0.000000  -38.107538  2.949259  0.849333  47.101133  3.130704  0.759097  48.567780  10.598832  -25.753477  23.351403  133.323593
0.125253  0.000000  0.000000  0.000000  -38.097857  2.980911  0.859071  47.049041  3.115481  0.731221  48.630814  10.943164  -25.614853  23.327979  133.334521
0.156566  0.000000  0.000000  0.000000  -38.134499  3.023316  0.905908  47.000574  3.111140  0.701975  48.612418  11.487643  -25.522851  23.283432  133.342883
0.187879  0.000000  0.000000  0.000000  -38.216129  3.079445  0.995436  46.964423  3.119653  0.676770  48.506469  12.219746  -25.477840  23.233273  133.350343
0.219192  0.000000  0.000000  0.000000  -38.341410  3.152269  1.134674  46.949349  3.141939  0.660037  48.306842  13.126952  -25.480190  23.193008  133.358564
0.250505  0.000000  0.000000  0.000000  -38.509008  3.244759  1.328094  46.964037  3.180746  0.657963  48.007413  14.196736  -25.530269  23.178147  133.369210
0.281818  0.000000  0.000000  0.000000  -38.717587  3.359888  1.583837  47.017316  3.236100  0.674269  47.602057  15.416577  -25.628448  23.204197  133.383946
0.313131  0.000000  0.000000  0.000000  -38.965810  3.500625  1.907253  47.117915  3.310010  0.714664  47.084650  16.773952  -25.775095  23.286666  133.404436
0.344444  0.000000  0.000000  0.000000  -39.251936  3.669947  2.303753  47.273975  3.403728  0.783951  46.450280  18.256311  -25.970740  23.439598  133.432475
0.375758  0.000000  0.000000  0.000000  -39.567635  3.870885  2.763896  47.483641  3.518826  0.881158  45.713803  19.850669  -26.218498  23.653172  133.472005
0.407071  0.000000  0.000000  0.000000  -39.899210  4.106517  3.267102  47.736996  3.656484  0.999888  44.906151  21.543686  -26.523592  23.898152  133.528716
0.438384  0.000000  0.000000  0.000000  -40.232810  4.379923  3.793786  48.024005  3.816889  1.132633  44.058725  23.322012  -26.891306  24.144739  133.608347
0.469697  0.000000  0.000000  0.000000  -40.554585  4.694184  4.322444  48.334636  4.001655  1.273070  43.202925  25.172295  -27.326924  24.363133  133.716638
0.501010  0.000000  0.000000  0.000000  -40.850915  5.052209  4.830116  48.658942  4.213836  1.415902  42.369868  27.081002  -27.835384  24.523902  133.859061
0.532323  0.000000  0.000000  0.000000  -41.119125  5.448839  5.311770  48.990402  4.457732  1.554840  41.577227  29.025851  -28.405360  24.614953  134.028540
0.563636  0.000000  0.000000  0.000000  -41.371988  5.867529  5.785673  49.326992  4.741030  1.683578  40.823696  30.972219  -29.002554  24.648678  134.200270
0.594949  0.000000  0.000000  0.000000  -41.623448  6.290873  6.267499  49.666441  5.075319  1.798361  40.106534  32.884546  -29.590936  24.639316  134.348112
0.626263  0.000000  0.000000  0.000000  -41.887445  6.701462  6.778285  50.006317  5.468499  1.891607  39.423002  34.727275  -30.134475  24.601108  134.445923
0.657576  0.000000  0.000000  0.000000  -42.177917  7.081908  7.334318  50.343346  5.932432  1.958542  38.770394  36.464882  -30.597214  24.548272  134.467627
0.688889  0.000000  0.000000  0.000000  -42.507047  7.421250  7.965098  50.664962  6.459301  1.989404  38.159812  38.075046  -30.972307  24.487299  134.412537
0.720202  0.000000  0.000000  0.000000  -42.882609  7.724689  8.714048  50.936839  7.004849  1.975341  37.637054  39.568634  -31.326068  24.405248  134.343774
0.751515  0.000000  0.000000  0.000000  -43.311695  7.999928  9.623489  51.125183  7.520047  1.910025  37.253285  40.961643  -31.736122  24.286173  134.334327
0.782828  0.000000  0.000000  0.000000  -43.801397  8.254665  10.726494  51.201714  7.963040  1.791003  37.059667  42.270069  -32.280098  24.114128  134.457182
0.814141  0.000000  0.000000  0.000000  -44.358807  8.496603  12.046096  51.146319  8.302686  1.616365  37.107364  43.509911  -33.035622  23.873169  134.785329
0.845455  0.000000  0.000000  0.000000  -44.987056  8.732235  13.572275  50.962322  8.538265  1.392473  37.423454  44.693311  -34.050274  23.553055  135.365591
0.876768  0.000000  0.000000  0.000000  -45.670723  8.962402  15.231659  50.715557  8.715695  1.149214  37.922154  45.814347  -35.230861  23.170276  136.122219
0.908081  0.000000  0.000000  0.000000  -46.388953  9.186291  16.958567  50.473324  8.867259  0.920062  38.484659  46.861814  -36.442993  22.749144  136.943588
0.939394  0.000000  0.000000  0.000000  -47.120893  9.403089  18.719162  50.279474  8.992482  0.735362  38.992156  47.824504  -37.552277  22.313970  137.718073
0.970707  0.000000  0.000000  0.000000  -47.845689  9.611981  20.508342  50.154149  9.063207  0.622350  39.325836  48.691211  -38.424319  21.889069  138.334047
1.002020  0.000000  0.000000  0.000000  -48.544100  9.812188  22.345398  50.096418  9.032939  0.598118  39.382371  49.451735  -38.942556  21.496804  138.693631
1.033333  0.000000  0.000000  0.000000  -49.211543  10.003223  24.254052  50.064288  8.873822  0.639413  39.199275  50.105035  -39.152617  21.141820  138.823999
1.064646  0.000000  0.000000  0.000000  -49.851262  10.184756  26.225719  50.007327  8.596734  0.714661  38.889244  50.654961  -39.186713  20.819300  138.819078
1.095960  0.000000  0.000000  0.000000  -50.466574  10.356461  28.250182  49.885876  8.216324  0.786265  38.565680  51.105406  -39.177864  20.524342  138.773423
1.127273  0.000000  0.000000  0.000000  -51.060797  10.518009  30.306702  49.666665  7.759132  0.817744  38.341982  51.460265  -39.259091  20.252041  138.781585
1.158586  0.000000  0.000000  0.000000  -51.636737  10.668984  32.350412  49.329177  7.275862  0.780170  38.326763  51.723730  -39.557982  19.997572  138.934165
1.189899  0.000000  0.000000  0.000000  -52.186771  10.807131  34.299459  48.911997  6.830923  0.672620  38.531003  51.906009  -40.091333  19.757732  139.241131
1.221212  0.000000  0.000000  0.000000  -52.693542  10.928482  36.051654  48.490664  6.477809  0.526683  38.874525  52.022933  -40.772502  19.530831  139.637176
1.252525  0.000000  0.000000  0.000000  -53.139321  11.029005  37.525195  48.122034  6.240272  0.377648  39.273663  52.090548  -41.510885  19.315235  140.054108
1.283838  0.000000  0.000000  0.000000  -53.506378  11.104666  38.684110  47.837611  6.097790  0.245721  39.644751  52.124900  -42.215880  19.109313  140.423736
1.315152  0.000000  0.000000  0.000000  -53.777115  11.151490  39.507378  47.644301  6.015188  0.151257  39.904760  52.141857  -42.797572  18.911505  140.678423
